<svg width="134" height="143" viewBox="0 0 134 143" fill="none" xmlns="http://www.w3.org/2000/svg">
<path d="M54.24 132.96V93.12C54.24 86.72 51.04 83.52 44.64 83.52H9.6C3.2 83.52 0 80.32 0 73.92V69.12C0 62.72 3.2 59.52 9.6 59.52H44.64C51.04 59.52 54.24 56.32 54.24 49.92V9.6C54.24 3.2 57.44 0 63.84 0H69.6C76 0 79.2 3.2 79.2 9.6V49.92C79.2 56.32 82.4 59.52 88.8 59.52H124.32C130.72 59.52 133.92 62.72 133.92 69.12V73.92C133.92 80.32 130.72 83.52 124.32 83.52H88.8C82.4 83.52 79.2 86.72 79.2 93.12V132.96C79.2 139.36 76 142.56 69.6 142.56H63.84C57.44 142.56 54.24 139.36 54.24 132.96Z" fill="#1CDE50"/>
</svg>
