<svg width="120" height="120" viewBox="0 0 120 120" fill="none" xmlns="http://www.w3.org/2000/svg">
<g clip-path="url(#clip0_107_6155)">
<path d="M3.75 60C3.75 44.4375 9.25 31.1875 20.25 20.25H20.1562C31.1562 9.25 44.4375 3.75 60 3.75C75.5625 3.75 88.8438 9.25 99.8438 20.25C110.781 31.1875 116.25 44.4375 116.25 60C116.25 75.5 110.781 88.75 99.8438 99.75C88.7812 110.75 75.5 116.25 60 116.25C44.5 116.25 31.25 110.75 20.25 99.75C9.25 88.75 3.75 75.5 3.75 60ZM7.5 60C7.5 74.4375 12.6562 86.8125 22.9688 97.125C33.2188 107.375 45.5625 112.5 60 112.5C74.4375 112.5 86.8438 107.375 97.2188 97.125C107.406 86.8125 112.5 74.4375 112.5 60C112.5 45.5 107.406 33.1562 97.2188 22.9688C86.9062 12.6562 74.5 7.5 60 7.5C45.6875 7.5 33.4375 12.5312 23.25 22.5938L22.875 22.9688C12.625 33.1562 7.5 45.5 7.5 60Z" fill="#36BDF7"/>
<path d="M7.5 60C7.5 45.5 12.625 33.1562 22.875 22.9688L23.25 22.5938C33.4375 12.5312 45.6875 7.5 60 7.5C74.5 7.5 86.9062 12.6562 97.2188 22.9688C107.406 33.1562 112.5 45.5 112.5 60C112.5 74.4375 107.406 86.8125 97.2188 97.125C86.8438 107.375 74.4375 112.5 60 112.5C45.5625 112.5 33.2188 107.375 22.9688 97.125C12.6562 86.8125 7.5 74.4375 7.5 60Z" fill="#1C9FD7"/>
<path d="M120 60C120 76.5625 114.156 90.6875 102.469 102.375C90.7188 114.125 76.5625 120 60 120C43.4375 120 29.2813 114.125 17.5312 102.375C5.84375 90.6875 0 76.5625 0 60C0 43.375 5.84375 29.2188 17.5312 17.5312C29.2813 5.84375 43.4375 0 60 0C76.5625 0 90.7188 5.84375 102.469 17.5312C114.156 29.2188 120 43.375 120 60ZM3.75 60C3.75 75.5 9.25 88.75 20.25 99.75C31.25 110.75 44.5 116.25 60 116.25C75.5 116.25 88.7812 110.75 99.8438 99.75C110.781 88.75 116.25 75.5 116.25 60C116.25 44.4375 110.781 31.1875 99.8438 20.25C88.8438 9.25 75.5625 3.75 60 3.75C44.4375 3.75 31.1562 9.25 20.1562 20.25H20.25C9.25 31.1875 3.75 44.4375 3.75 60Z" fill="#167DA8"/>
<path d="M71.5132 89.616L44.0092 61.392C42.6172 60 42.6652 58.656 44.1532 57.36L71.4412 30.936C72.0652 30.312 72.7132 30 73.3852 30C74.1532 30 74.8492 30.36 75.4732 31.08L76.2652 31.944C76.8892 32.568 77.2012 33.24 77.2012 33.96C77.2012 34.68 76.8652 35.376 76.1932 36.048L54.5212 57.36C53.8492 58.032 53.5132 58.704 53.5132 59.376C53.5132 60 53.8012 60.672 54.3772 61.392L76.4812 84.864C77.7292 86.208 77.6812 87.552 76.3372 88.896L75.6172 89.688C74.9452 90.36 74.2732 90.696 73.6012 90.696C72.8812 90.696 72.1852 90.336 71.5132 89.616Z" fill="white"/>
</g>
<defs>
<clipPath id="clip0_107_6155">
<rect width="120" height="120" fill="white"/>
</clipPath>
</defs>
</svg>
